<?xml version="1.0" encoding="utf-8"?>
<!-- Generator: Adobe Illustrator 21.0.2, SVG Export Plug-In . SVG Version: 6.00 Build 0)  -->
<svg version="1.1" id="Layer_1" xmlns="http://www.w3.org/2000/svg" xmlns:xlink="http://www.w3.org/1999/xlink" x="0px" y="0px"
	 viewBox="0 0 959.8 560.2" style="enable-background:new 0 0 959.8 560.2;" xml:space="preserve">
<style type="text/css">
	.st0{fill:none;stroke:#FFFFFF;stroke-width:5;stroke-linecap:round;stroke-linejoin:round;stroke-miterlimit:10;}
</style>
<line class="st0" x1="7.2" y1="242.6" x2="153.5" y2="17.4"/>
<line class="st0" x1="1.7" y1="328.6" x2="70.3" y2="222.9"/>
<line class="st0" x1="81.4" y1="207.6" x2="163.1" y2="81.8"/>
<line class="st0" x1="36.1" y1="120.7" x2="89.2" y2="39"/>
<line class="st0" x1="102.6" y1="330.8" x2="248.9" y2="105.5"/>
<line class="st0" x1="97.1" y1="416.8" x2="165.8" y2="311.1"/>
<line class="st0" x1="176.9" y1="295.8" x2="258.6" y2="170"/>
<line class="st0" x1="131.6" y1="208.9" x2="184.7" y2="127.2"/>
<line class="st0" x1="230.7" y1="369.9" x2="377.1" y2="144.7"/>
<line class="st0" x1="225.2" y1="455.9" x2="293.9" y2="350.2"/>
<line class="st0" x1="305" y1="334.9" x2="386.7" y2="209.1"/>
<line class="st0" x1="259.7" y1="248" x2="312.8" y2="166.3"/>
<line class="st0" x1="326.2" y1="458.1" x2="472.5" y2="232.9"/>
<line class="st0" x1="320.7" y1="544.1" x2="389.3" y2="438.4"/>
<line class="st0" x1="400.4" y1="423.1" x2="482.1" y2="297.3"/>
<line class="st0" x1="355.1" y1="336.2" x2="408.2" y2="254.5"/>
<line class="st0" x1="532.4" y1="293.1" x2="678.7" y2="67.9"/>
<line class="st0" x1="526.9" y1="379.1" x2="595.5" y2="273.4"/>
<line class="st0" x1="606.6" y1="258.1" x2="688.3" y2="132.3"/>
<line class="st0" x1="627.8" y1="381.3" x2="774.1" y2="156.1"/>
<line class="st0" x1="622.3" y1="467.3" x2="691" y2="361.6"/>
<line class="st0" x1="702" y1="346.3" x2="783.8" y2="220.5"/>
<line class="st0" x1="656.8" y1="259.4" x2="709.9" y2="177.7"/>
<line class="st0" x1="755.9" y1="420.4" x2="902.3" y2="195.2"/>
<line class="st0" x1="750.4" y1="506.4" x2="819.1" y2="400.7"/>
<line class="st0" x1="830.2" y1="385.4" x2="911.9" y2="259.6"/>
<line class="st0" x1="784.9" y1="298.5" x2="838" y2="216.8"/>
<line class="st0" x1="771.8" y1="553.9" x2="933.4" y2="305"/>
</svg>
