<?xml version="1.0" encoding="utf-8"?>
<!-- Generator: Adobe Illustrator 21.0.2, SVG Export Plug-In . SVG Version: 6.00 Build 0)  -->
<svg version="1.1" id="Layer_1" xmlns="http://www.w3.org/2000/svg" xmlns:xlink="http://www.w3.org/1999/xlink" x="0px" y="0px"
	 viewBox="0 0 573 659" style="enable-background:new 0 0 573 659;" xml:space="preserve">
<style type="text/css">
	.st0{fill:#F40C6B;}
</style>
<g>
	<path class="st0" d="M251.5,65.5c-42.1-0.2-56.8-35.5-56.7-65.7l19.7,0.1c0,10.7,2.5,45.8,37.1,45.9c36.1,0.1,44.3-33.7,44.4-45.6
		l19.7,0.1C315.6,27.5,295.6,65.7,251.5,65.5z"/>
</g>
<g>
	<path class="st0" d="M160.9,609.7c0.4,42-34.7,57.3-64.9,57.7l-0.2-19.7c10.7-0.1,45.7-3.2,45.4-37.7
		c-0.4-36.1-34.4-43.9-46.2-43.7l-0.2-19.7C122,546.2,160.5,565.7,160.9,609.7z"/>
</g>
<g>
	<path class="st0" d="M177.2,237.6c42-0.4,57.3,34.7,57.7,64.9l-19.7,0.2C215,292,212,257,177.4,257.3
		c-36.1,0.4-43.9,34.4-43.7,46.2l-19.7,0.2C113.7,276.6,133.1,238.1,177.2,237.6z"/>
</g>
<g>
	<path class="st0" d="M94.4,422.3c-0.4-42,34.7-57.3,64.9-57.7l0.2,19.7c-10.7,0.1-45.7,3.2-45.4,37.7c0.4,36.1,34.4,43.9,46.2,43.7
		l0.2,19.7C133.3,485.8,94.8,466.4,94.4,422.3z"/>
</g>
<g>
	<path class="st0" d="M318.5,358.5c42-0.4,57.3,34.7,57.7,64.9l-19.7,0.2c-0.1-10.7-3.2-45.7-37.7-45.4
		c-36.1,0.4-43.9,34.4-43.7,46.2l-19.7,0.2C255,397.5,274.4,359,318.5,358.5z"/>
</g>
<g>
	<path class="st0" d="M454.8,361.4c-0.4-42,34.7-57.3,64.9-57.7l0.2,19.7c-10.7,0.1-45.7,3.2-45.4,37.7
		c0.4,36.1,34.4,43.9,46.2,43.7l0.2,19.7C493.8,424.9,455.3,405.5,454.8,361.4z"/>
</g>
<g>
	<path class="st0" d="M379.3,124.7c42-0.4,57.3,34.7,57.7,64.9l-19.7,0.2c-0.1-10.7-3.2-45.7-37.7-45.4
		c-36.1,0.4-43.9,34.4-43.7,46.2l-19.7,0.2C315.8,163.7,335.3,125.2,379.3,124.7z"/>
</g>
<g>
	<path class="st0" d="M97.4,91.8c42-0.4,57.3,34.7,57.7,64.9l-19.7,0.2c-0.1-10.7-3.2-45.7-37.7-45.4c-36.1,0.4-43.9,34.4-43.7,46.2
		L34.2,158C33.9,130.8,53.3,92.3,97.4,91.8z"/>
</g>
<g>
	<path class="st0" d="M416,562.4c-0.4-42,34.7-57.3,64.9-57.7l0.2,19.7c-10.7,0.1-45.7,3.2-45.4,37.7c0.4,36.1,34.4,43.9,46.2,43.7
		l0.2,19.7C454.9,625.9,416.5,606.5,416,562.4z"/>
</g>
</svg>
