<?xml version="1.0" encoding="utf-8"?>
<!-- Generator: Adobe Illustrator 21.0.2, SVG Export Plug-In . SVG Version: 6.00 Build 0)  -->
<svg version="1.1" id="Layer_1" xmlns="http://www.w3.org/2000/svg" xmlns:xlink="http://www.w3.org/1999/xlink" x="0px" y="0px"
	 viewBox="0 0 573 659" style="enable-background:new 0 0 573 659;" xml:space="preserve">
<style type="text/css">
	.st0{fill:#FFD00F;}
</style>
<g>
	<g>
		<path class="st0" d="M96.7,267.7c-1.6-5.6-5.3-10-9.1-14.3c-4.3-4.8-8.4-9.7-12.7-14.5c-9.8-10.8-20.1-21.1-30.8-31
			c-10.9-10-22-19.8-32.8-29.9c-9.1-8.5-17.8-19-29.4-24.2c-3.4-1.5-13.1,0.7-13.4,5.2c-0.8,14.8,4,29.6,8.6,43.5
			c5.5,16.5,11.1,32.9,17,49.3C7,287.7,19.7,323.6,29.7,360.4c5.4,19.7,13.5,41.3,11,62c4.8-1.3,9.5-2.6,14.3-3.8
			c-19.7-19-35.1-42-52.8-62.8c-18.2-21.5-37.4-42.2-57.1-62.4c-17.8-18.2-35.2-37.5-55.5-53.2c-7.4-5.7-16-11.8-25.5-13
			c-11.4-1.3-16.9,8.1-19.7,17.6c-5.8,20.1-2.3,43.5,3.2,63.2c1.2,4.2,16,0.2,14.8-4c-3.4-12.1-5.4-24.6-5.8-37.2
			c-0.4-12.2,0.5-26.6,8.5-36.4c-3.8,1.2-7.6,2.5-11.5,3.7c12.1,0.9,23.5,12.2,32.2,19.8c14.1,12.4,27,26,40.1,39.4
			c26.3,26.7,52,54.2,75.3,83.5c12.8,16.1,25,32.7,39.8,47.1c2.5,2.5,13.8,0.1,14.3-3.8c2.2-18.3-3.6-35.8-8.2-53.3
			c-4.8-18.5-10.3-36.9-16.2-55.1c-11.6-35.9-25-71.3-37.1-107c-5.3-15.8-11.6-32.7-10.6-49.6c-4.5,1.7-8.9,3.5-13.4,5.2
			c11,4.9,19.6,15.8,28.3,23.9c10.6,9.9,21.4,19.5,32,29.2c10,9.2,19.7,18.9,28.9,28.9c4.5,4.9,8.8,9.9,13.2,14.9
			c3.9,4.4,8,8.6,9.6,14.5C83.1,275.9,97.9,271.9,96.7,267.7L96.7,267.7z"/>
	</g>
</g>
<g>
	<g>
		<path class="st0" d="M125,434.2c1-12.9,8.3-22,20.2-26.9c12.8-5.3,27.4-7.3,41.2-7.9c34-1.5,67.4,6.9,97.1,23.4
			c29.3,16.3,56.8,35.8,86.3,51.9c28.2,15.3,57.8,25.2,89.4,30.6c30.7,5.2,62.6,6.7,93.3,0.3c31.2-6.5,58-22.5,76.4-48.8
			c8.5-12.2,14.7-25.6,19.4-39.7c4.7-14.1,8.5-29,9.3-43.9c0.7-12.6-1.7-24.6-8.8-35.1c-6.5-9.5-16.3-16.6-26.9-20.8
			c-24.8-10-55.5-6.7-77.2,9.1c-11.6,8.6-17.7,21.1-21.5,34.7c-1.7,6.1-3.2,13.3-0.9,19.4c2.2,5.8,7.2,9.8,13,11.5
			c7.8,2.3,13.9-0.1,21.5-1.5c2.4-0.4,8-1.7,8.5-4.8c0.4-3.1-4.4-3.1-6.3-2.7c-6.6,1.2-11.7,4.1-17.7-0.7
			c-5.2-4.2-5.8-10.7-4.8-16.9c2.1-12.7,7.4-26.9,17.5-35.3c17.9-14.8,45.2-13.4,64.5-2c9.5,5.6,17.2,14.3,21.1,24.7
			c4.6,12.2,3.6,25.2,1.3,37.7c-5,28.1-15.7,56.1-34.8,77.7c-39.3,44.4-109.1,37-161.1,24.6c-30.5-7.2-58.1-21.3-84.8-37.4
			c-26.7-16.1-52.6-35.1-81.2-47.8c-28.9-12.8-61.3-18.1-92.8-15.8c-14.2,1-28.4,3.5-41.9,8.1c-10.8,3.7-22.2,9.6-28.6,19.5
			c-3.3,5.1-5,10.6-5.5,16.6C109.8,441.7,124.6,438.8,125,434.2L125,434.2z"/>
	</g>
</g>
<g>
	<g>
		<path class="st0" d="M574.5,120.7c0.1,31.1,3.7,62.3-0.4,93.3c2.7-2.1,5.4-4.2,8.1-6.3c1.1,0-0.6-0.1-1-0.2
			c-1.3-0.4-2.5-1-3.7-1.6c-2.9-1.6-5.6-3.7-8.1-5.8c-5.9-4.8-11.2-10.2-16.3-15.8c-9.7-10.6-18.8-21.6-28.4-32.3
			c-35.7-39.3-72-78.3-107-118.3c-8.9-10.1-17.7-20.3-26.5-30.5c-7.5-8.8-15.9-17.1-27.4-20.2c-4.7-1.3-10.6,0.4-11.7,5.7
			c-4.1,18.6-1.9,37.9,1.4,56.4c3.4,19.5,7.5,38.9,11.5,58.2c8.8,42.5,17.9,84.6,23.2,127.7c1.4,11.7,2.5,23.4,4.4,35
			c1.5,9.5,5.2,20.2,1.4,29.5c3.8-1.4,7.6-2.8,11.3-4.2c-10.1-2.8-15.8-15.5-20.3-24c-6.3-11.9-13.2-23.1-20.7-34.3
			c-9.1-13.6-19.2-26.3-29.9-38.7c-11.2-13-21.9-26.5-32.5-40.1c-11.9-15.3-23.7-30.7-36.1-45.6c-4.6-5.5-18.6,0.6-13.5,6.7
			c22.6,27.2,43.2,56,66.2,82.9c20,23.5,38.4,47.9,52.8,75.3c5.7,10.8,12.9,24.8,25.7,28.3c4,1.1,9.6,0.1,11.3-4.2
			c3.5-8.4,2.5-17.4,0.9-26.2c-1.7-9.6-3-19.1-4.2-28.8c-2.6-21.7-5.2-43.4-9.1-65c-7.4-41.7-17-83-25.3-124.5
			c-4.3-21.5-8.2-43.7-3.4-65.4c-3.9,1.9-7.8,3.8-11.7,5.7c10,2.7,16.8,9.8,23.3,17.5c7.9,9.4,16.1,18.6,24.2,27.9
			c18,20.5,36.3,40.7,54.8,60.8c18.4,20,36.5,40.3,54.8,60.4c9.7,10.7,18.8,21.9,28.7,32.5c10.1,10.9,23.7,26.7,39.9,26.6
			c3.5,0,7.6-2.6,8.1-6.3c4.1-31,0.5-62.2,0.4-93.3C589.5,111.7,574.5,113.6,574.5,120.7L574.5,120.7z"/>
	</g>
</g>
<g>
	<g>
		<path class="st0" d="M41.3,663.4c0-17.9,0-35.9,0-53.8c0-16.1,2.4-32.6-4.5-47.6c-6.2-13.6-16.6-24.4-28.3-33.4
			c-11.5-8.9-24.2-15.9-38.2-20c-16.5-4.8-33.5-8.2-50.1-12.6c-14.2-3.7-28.8-7.5-41.2-15.6c-11.2-7.3-17.9-17.8-21.2-30.6
			c-2.9-11.2-4.4-25.1,2.8-35.1c6.4-8.9,21.3-11.3,31.5-10.4c13.6,1.2,23.6,13.7,24.3,26.8c0.3,4.9,15.1,1.8,14.8-4
			c-0.7-13.3-10.1-24.5-22.4-29.2c-11.5-4.4-25.8-2.4-37.4,1c-12.2,3.6-23.4,9.8-28.3,22.2c-4.8,12-2.4,26.3,1.5,38.2
			c10.2,30.8,44.2,39.1,72.1,46.1c17.3,4.4,35.9,7.2,52.5,14c15.1,6.2,28.5,15.9,39.8,27.6c6.3,6.5,11.5,14.2,14.7,22.8
			c3.6,9.8,3.1,19.5,2.9,29.8c-0.4,21.9,0,43.7,0,65.6C26.5,671.5,41.3,668.4,41.3,663.4L41.3,663.4z"/>
	</g>
</g>
<g>
	<g>
		<path class="st0" d="M122,519.3c1.4,15.2,5.3,29.8,9.8,44.3c4.6,14.8,9.4,29.6,14.4,44.3c6.8,20,13.9,40.1,21.9,59.8
			c5.1,12.6,11.8,30.2,24.8,36.6c7.5,3.7,16.7,1.8,23.7-2c10.2-5.5,16.3-16.5,22.1-26.1c8.7-14.5,17.2-29,25.2-43.9
			c4.1-7.7,8.1-15.5,12.4-23.1c1.7-3,3.4-6,5.2-8.9c0.7-1.2,1.4-2.3,2.2-3.4c2.1-2.8,4.4-2.6-1.1-1.9c-1.4-0.4-2.8-0.8-4.3-1.3
			c11.8,20,17,42.5,25.7,63.8c3.8,9.4,9.2,18.2,17.5,24.3c8.4,6.2,18.2,6.7,27.8,2.8c10.3-4.1,17.4-13.4,23.7-22.2
			c6.4-8.9,11.9-18.4,17.9-27.6c8-12.2,14.6-26.6,26-36c1.3-1.1,2.9-2.3,4.5-2.9c-2,0.8-0.9-0.1,0.1,0.4c2.3,1.1,4.4,1.6,6.5,3.3
			c1.9,1.6,3.4,3.5,4.7,5.5c3,4.4,5.4,9.2,8.4,13.7c3.8,5.6,7.9,11,12.2,16.3c2.5,3,16.5-2.1,13.9-5.2c-7.2-8.7-12.9-18.1-18.9-27.6
			c-4.4-6.9-10.1-12.1-18.7-12.6c-16.8-0.9-29.4,11.3-38.4,24c-9.7,13.6-17.9,28.4-27,42.4c-3.3,5-6.7,9.9-10.5,14.6
			c-1.4,1.8-2.9,3.5-4.5,5.1c-1.4,1.4-2.9,2.6-4.3,4c-0.5,0.3-0.9,0.6-1.4,0.9c1.3-0.1,1.3-0.1,0-0.2c-9.9-1.8-17.9-12.5-22-20.9
			c-5.2-10.4-8.3-21.9-12.2-32.8c-4.6-12.8-9.4-25.6-16.3-37.3c-0.8-1.4-2.9-1.4-4.3-1.3c-5.9,0.7-11.7,2.3-16.2,6.5
			c-3.5,3.3-5.8,7.8-8.2,11.9c-7.2,12.5-13.7,25.3-20.6,37.9c-7.1,12.8-14.6,25.5-22.2,38c-3.1,5.2-6.4,10.3-10.8,14.5
			c-0.7,0.6-3.3,2.8-3.4,2.9c0.6-1,2.5,0.5,1.1-0.5c-2.1-1.5-4.7-2.1-6.8-3.9c-3-2.6-5.4-5.8-7.5-9.1c-4.3-6.6-7.6-13.8-10.6-21
			c-7.3-17.8-13.8-36.1-20.1-54.3c-5.5-15.9-10.7-32-15.8-48.1c-4.9-15.7-9.4-31.4-10.9-47.9C136.6,512.1,121.6,515,122,519.3
			L122,519.3z"/>
	</g>
</g>
<g>
	<g>
		<path class="st0" d="M279,345.1c0.1-15.9,2.2-32.1-0.3-47.9c-2.4-15.3-7.9-30.4-14.8-44.2c-6.8-13.4-15.5-26.2-24.3-38.4
			c-9.1-12.5-21.7-21.7-34.7-29.9c-13.8-8.6-27.8-17.5-43.4-22.6c-16.2-5.3-32.6-10.2-48.9-15.2c-15.3-4.7-29.8-9-42.6-18.9
			c-6-4.6-11.3-10-16.7-15.3c-5.6-5.6-11.7-10.8-17.6-16.1C21.9,84.3,9.7,70.5-2.6,56.8C-8.2,50.4-15.3,43.4-18,35.1
			c-2-6.1-0.4-13-4.9-18.2c-4-4.5-18.1,1.1-13.6,6.2c3.6,4.1,2.1,10.5,3.6,15.5c2.1,7.1,7.3,13.5,12,19
			c10.6,12.4,21.7,24.8,33.3,36.3c11,10.8,22.7,21,33.9,31.6c10.2,9.7,21.5,18.3,34.8,23.3c16,6,32.7,10.2,49,15.5
			c7.8,2.6,15.8,4.7,23.6,7.3c7.7,2.6,14.7,6.2,21.6,10.3c13.9,8.2,28.5,16.2,40.4,27.2c10.6,9.8,18.5,23.2,26.2,35.3
			c9.5,14.8,16.2,31.3,20.3,48.3c4.3,17.9,2,35.8,2,53.9C264.1,353.6,279,350.9,279,345.1L279,345.1z"/>
	</g>
</g>
</svg>
